Coordinates
version=1
nRows=9
nColumns=36
inDegrees=yes

Units are S.I. units (second, meters, Newtons, ...)
If the header above contains a line with 'inDegrees', this indicates whether rotational values are in degrees (yes) or radians (no).

endheader
time	pelvis_tilt	pelvis_list	pelvis_rotation	pelvis_tx	pelvis_ty	pelvis_tz	hip_flexion_r	hip_adduction_r	hip_rotation_r	knee_angle_r	knee_angle_r_beta	ankle_angle_r	subtalar_angle_r	mtp_angle_r	hip_flexion_l	hip_adduction_l	hip_rotation_l	knee_angle_l	knee_angle_l_beta	ankle_angle_l	subtalar_angle_l	mtp_angle_l	lumbar_extension	lumbar_bending	lumbar_rotation	arm_flex_r	arm_add_r	arm_rot_r	elbow_flex_r	pro_sup_r	arm_flex_l	arm_add_l	arm_rot_l	elbow_flex_l	pro_sup_l
      7.11666670	      8.34138672	      5.05091439	      8.56416549	      0.57597527	      0.84654088	      0.06565326	     20.35701378	      8.26345402	      7.57098994	     51.88930492	      0.90563922	     23.82550046	    -12.95399290	     -7.49999987	     31.89703235	    -15.28575751	    -17.96035122	     10.65186104	      0.18591005	    -12.38595975	     -1.07849530	     -7.49999987	    -31.24654801	      0.82168669	      6.10261603	     47.07247840	      3.08762782	     74.54025554	    121.10967491	     88.47380337	     51.00616149	      5.54498612	     62.16866697	    132.60859080	     76.01851068
      7.13333330	      8.06864477	      5.33820709	      8.31423076	      0.57592121	      0.85203678	      0.06596751	     19.32410942	      7.92526148	      8.19455698	     49.86428073	      0.87029588	     23.59972884	    -12.90802166	     -7.49999987	     31.88187947	    -15.04290725	    -17.35277427	     11.15413576	      0.19467639	    -12.37339266	     -1.24431258	     -7.49999987	    -30.64289728	      0.26296087	      5.87866805	     46.76765157	      3.19504570	     74.87752729	    121.71181879	     88.52504338	     50.87563518	      5.24915939	     62.15330813	    132.76960747	     76.01336040
      7.15000000	      7.97367663	      5.77915734	      8.59131750	      0.58634618	      0.85192616	      0.06116206	     18.13679592	      7.11680826	      8.07923129	     48.52559760	      0.84693145	     23.40363582	    -12.97908146	     -7.49999987	     31.57201796	    -14.49787275	    -16.56723688	     11.61943828	      0.20279746	    -12.22168543	     -1.39348733	     -7.49999987	    -29.78730263	     -0.24801349	      5.45089793	     45.87802703	      3.40922730	     75.36763770	    122.18327339	     88.58593177	     50.31507379	      5.16432673	     62.32526552	    132.86606309	     76.00345629
      7.16666670	      7.90884453	      6.06676101	      8.97200415	      0.58489582	      0.85865156	      0.06141396	     16.64298502	      6.32411009	      7.69849465	     46.29118881	      0.80793366	     23.09624297	    -12.57759689	     -7.49999987	     31.60760006	    -13.89144793	    -15.33641852	     12.47827501	      0.21778698	    -11.33281832	     -1.10349669	     -7.49999987	    -28.97707010	     -0.56118184	      5.27278502	     45.32232004	      3.46488693	     75.61019140	    122.26570745	     88.63017307	     49.77538429	      5.22265466	     62.44528026	    132.84344398	     75.95785485
      7.18333330	      7.61250066	      6.03488406	      9.15740616	      0.57884582	      0.86146060	      0.06431671	     15.68029314	      6.09785707	      7.68527520	     44.06736886	      0.76912068	     22.93536817	    -11.95486018	     -7.49999987	     31.92140045	    -13.71611618	    -14.53277916	     12.75231308	      0.22256985	    -10.75033537	     -0.77684304	     -7.49999987	    -28.05607574	     -0.65879401	      5.33959894	     44.99420762	      3.40442721	     75.55931666	    122.40190320	     88.64657971	     49.58139117	      5.36398303	     62.17660622	    132.86946314	     75.88273788
      7.20000000	      6.95356162	      5.99163558	      9.11380202	      0.58435699	      0.86524058	      0.06123288	     15.16267858	      5.78222917	      7.68714855	     41.95352872	      0.73222721	     22.71552076	    -11.26857479	     -7.49999987	     32.28879972	    -13.59767101	    -14.42213721	     12.89944521	      0.22513779	    -10.72681972	     -1.00828942	     -7.49999987	    -27.09564410	     -0.77185808	      5.26919072	     44.44472515	      3.31404808	     75.50847531	    122.68638353	     88.68183119	     49.02253991	      5.42166997	     61.99852707	    133.08044708	     75.80869037
      7.21666670	      6.34718759	      5.73831333	      8.90136041	      0.57490696	      0.87425307	      0.06594305	     14.88601903	      5.80356642	      7.86344299	     39.59881615	      0.69112972	     22.13735386	    -10.27441655	     -7.49999987	     32.71551217	    -13.77054728	    -14.16469237	     13.02728991	      0.22736910	    -10.98173453	     -0.96893024	     -7.49999987	    -26.19868326	     -0.61192617	      5.56806459	     44.50351536	      3.47021188	     75.96925736	    123.34038888	     88.82596479	     48.80179912	      5.53907784	     61.68127116	    133.36684961	     75.75237262
      7.23333330	      6.03486809	      5.45551492	      8.91134385	      0.57611693	      0.87591682	      0.06472905	     14.42914852	      5.99755559	      8.09408151	     37.82692129	      0.66020432	     21.55238554	     -9.79402790	     -7.49999987	     32.92739531	    -13.87849492	    -13.93878191	     12.85134479	      0.22429828	    -10.67436994	     -1.04444304	     -7.49999987	    -25.57368045	     -0.34824857	      5.42120096	     44.83719146	      3.61003068	     76.33398812	    124.38146579	     87.96624472	     49.03525734	      5.52038955	     60.88944991	    133.41071481	     74.89012334
      7.25000000	      5.47123098	      5.38796503	      8.70832142	      0.58233121	      0.87393611	      0.06214490	     14.10203337	      5.85188574	      8.30330753	     36.53838948	      0.63771520	     21.02361085	     -9.19302834	     -7.49999987	     33.23054491	    -13.89528280	    -14.25399221	     12.89961290	      0.22514072	    -10.36011279	     -1.46464833	     -7.49999987	    -24.69118964	     -0.47796005	      5.38868340	     44.75585799	      4.05401421	     76.86487066	    124.79597918	     88.11375672	     48.74247949	      5.52238166	     60.74367242	    133.47573703	     74.79698870
